<?xml version="1.0" encoding="UTF-8" standalone="no"?>
<!-- Generator: IcoMoon.io -->

<svg xmlns:dc="http://purl.org/dc/elements/1.1/" xmlns:cc="http://creativecommons.org/ns#" xmlns:rdf="http://www.w3.org/1999/02/22-rdf-syntax-ns#" xmlns:svg="http://www.w3.org/2000/svg" xmlns="http://www.w3.org/2000/svg" xmlns:sodipodi="http://sodipodi.sourceforge.net/DTD/sodipodi-0.dtd" xmlns:inkscape="http://www.inkscape.org/namespaces/inkscape" version="1.1" id="Layer_1" x="0px" y="0px" width="64" height="64" viewBox="0 0 64 64" enable-background="new 0 0 16 16" xml:space="preserve" inkscape:version="0.48.2 r9819" sodipodi:docname="pin.svg" style="fill:#000000" inkscape:export-filename="/Users/Tyler/Desktop/search.png" inkscape:export-xdpi="180" inkscape:export-ydpi="180"><metadata id="metadata9"><rdf:RDF><cc:Work rdf:about=""><dc:format>image/svg+xml</dc:format><dc:type rdf:resource="http://purl.org/dc/dcmitype/StillImage" /><dc:title></dc:title></cc:Work></rdf:RDF></metadata><defs id="defs7" /><sodipodi:namedview pagecolor="#ffffff" bordercolor="#666666" borderopacity="1" objecttolerance="10" gridtolerance="10" guidetolerance="10" inkscape:pageopacity="0" inkscape:pageshadow="2" inkscape:window-width="1241" inkscape:window-height="748" id="namedview5" showgrid="false" inkscape:zoom="9.3749999" inkscape:cx="32" inkscape:cy="27.733334" inkscape:window-x="0" inkscape:window-y="0" inkscape:window-maximized="0" inkscape:current-layer="layer6" /> <g inkscape:groupmode="layer" id="layer2" inkscape:label="Pin Left" style="display:none"><path style="fill:#ffffff;fill-opacity:1;stroke:#000000;stroke-width:2;stroke-linejoin:round;stroke-miterlimit:4;stroke-opacity:1;stroke-dasharray:none" d="M 24.320001,0.9999991 C 11.443474,0.9999991 1,11.412124 1,24.25 c 0,12.837875 23.320001,38.750001 23.320001,38.750001 0,0 23.320001,-25.912126 23.320001,-38.750001 0,-12.837876 -10.443474,-23.2500009 -23.320001,-23.2500009 z m 0,15.5000009 c 4.29088,0 7.773334,3.472 7.773334,7.75 0,4.278 -3.482454,7.75 -7.773334,7.75 -4.29088,0 -7.773334,-3.472 -7.773334,-7.75 0,-4.278 3.482454,-7.75 7.773334,-7.75 z" id="path3758" inkscape:connector-curvature="0" /></g><g style="display:none" inkscape:label="Pin Minus" id="g3790" inkscape:groupmode="layer"><path sodipodi:type="arc" style="fill:#ff0000;fill-opacity:1;stroke:#000000;stroke-width:1.40106857;stroke-linecap:butt;stroke-linejoin:round;stroke-miterlimit:4;stroke-opacity:1;stroke-dasharray:none;stroke-dashoffset:2.4;display:inline" id="path3792" sodipodi:cx="49.0625" sodipodi:cy="50.4375" sodipodi:rx="13.5625" sodipodi:ry="13.0625" d="m 62.625,50.4375 a 13.5625,13.0625 0 1 1 -27.125,0 13.5625,13.0625 0 1 1 27.125,0 z" transform="matrix(1.4009217,0,0,1.4545455,-24.732721,-29.363639)" /><path inkscape:connector-curvature="0" id="path3794" d="m 33,41 0,6 22,0 0,-6 z" style="fill:#ffffff;fill-opacity:1;stroke:#000000;stroke-width:2;stroke-linecap:butt;stroke-linejoin:round;stroke-miterlimit:4;stroke-opacity:1;stroke-dasharray:none;stroke-dashoffset:2.4" sodipodi:nodetypes="ccccc" /></g><g inkscape:groupmode="layer" id="layer3" inkscape:label="Pin Plus" style="display:none"><path transform="matrix(1.4009217,0,0,1.4545455,-24.732721,-29.363639)" d="m 62.625,50.4375 a 13.5625,13.0625 0 1 1 -27.125,0 13.5625,13.0625 0 1 1 27.125,0 z" sodipodi:ry="13.0625" sodipodi:rx="13.5625" sodipodi:cy="50.4375" sodipodi:cx="49.0625" id="path3782" style="fill:#00ff00;fill-opacity:1;stroke:#000000;stroke-width:1.40106857;stroke-linecap:butt;stroke-linejoin:round;stroke-miterlimit:4;stroke-opacity:1;stroke-dasharray:none;stroke-dashoffset:2.4;display:inline" sodipodi:type="arc" /><path style="fill:#ffffff;fill-opacity:1;stroke:#000000;stroke-width:1.99999988;stroke-linecap:butt;stroke-linejoin:round;stroke-miterlimit:4;stroke-opacity:1;stroke-dasharray:none;stroke-dashoffset:2.4" d="m 41,33 0,8 -8,0 0,6 8,0 0,8 6,0 0,-8 8,0 0,-6 -8,0 0,-8 -6,0 z" id="rect3785" inkscape:connector-curvature="0" /></g><g inkscape:groupmode="layer" id="layer1" inkscape:label="Pin Check" style="display:none"><path sodipodi:type="arc" style="fill:#0080ff;fill-opacity:1;stroke:#000000;stroke-width:1.40106857;stroke-linecap:butt;stroke-linejoin:round;stroke-miterlimit:4;stroke-opacity:1;stroke-dasharray:none;stroke-dashoffset:2.4" id="path2982" sodipodi:cx="49.0625" sodipodi:cy="50.4375" sodipodi:rx="13.5625" sodipodi:ry="13.0625" d="m 62.625,50.4375 a 13.5625,13.0625 0 1 1 -27.125,0 13.5625,13.0625 0 1 1 27.125,0 z" transform="matrix(1.4009217,0,0,1.4545455,-24.732721,-29.363639)" /><path style="fill:#ffffff;fill-opacity:1;stroke:#000000;stroke-width:2;stroke-linecap:butt;stroke-linejoin:round;stroke-miterlimit:4;stroke-opacity:1;stroke-dasharray:none" d="M 50.838815,33 42.842105,48.2759 35.786184,43.2414 33,46.793 42.263157,53.4138 44.506578,55 45.736841,52.6207 55,34.9656 50.838815,33 z" id="path3774" inkscape:connector-curvature="0" /></g><g inkscape:groupmode="layer" id="layer4" inkscape:label="Minus" style="display:none"><path transform="matrix(2.2857143,0,0,2.3732058,-80.142858,-87.698568)" d="m 62.625,50.4375 a 13.5625,13.0625 0 1 1 -27.125,0 13.5625,13.0625 0 1 1 27.125,0 z" sodipodi:ry="13.0625" sodipodi:rx="13.5625" sodipodi:cy="50.4375" sodipodi:cx="49.0625" id="path3796" style="fill:#ff0000;fill-opacity:1;stroke:#000000;stroke-width:0.85871947;stroke-linecap:butt;stroke-linejoin:round;stroke-miterlimit:4;stroke-opacity:1;stroke-dasharray:none;stroke-dashoffset:2.4;display:inline" sodipodi:type="arc" /><path sodipodi:nodetypes="ccccc" style="fill:#ffffff;fill-opacity:1;stroke:#000000;stroke-width:1.99999988;stroke-linecap:butt;stroke-linejoin:round;stroke-miterlimit:4;stroke-opacity:1;stroke-dasharray:none;stroke-dashoffset:2.4;display:inline" d="m 12.999999,27.000001 0,10 38.000001,0 0,-10 z" id="path3798" inkscape:connector-curvature="0" /></g><g inkscape:label="Plus" id="g3819" inkscape:groupmode="layer" style="display:none"><path sodipodi:type="arc" style="fill:#00ff00;fill-opacity:1;stroke:#000000;stroke-width:0.85871947;stroke-linecap:butt;stroke-linejoin:round;stroke-miterlimit:4;stroke-opacity:1;stroke-dasharray:none;stroke-dashoffset:2.4;display:inline" id="path3821" sodipodi:cx="49.0625" sodipodi:cy="50.4375" sodipodi:rx="13.5625" sodipodi:ry="13.0625" d="m 62.625,50.4375 a 13.5625,13.0625 0 1 1 -27.125,0 13.5625,13.0625 0 1 1 27.125,0 z" transform="matrix(2.2857143,0,0,2.3732058,-80.142858,-87.698568)" /><path style="fill:#ffffff;fill-opacity:1;stroke:#000000;stroke-width:1.99999988;stroke-linecap:butt;stroke-linejoin:round;stroke-miterlimit:4;stroke-opacity:1;stroke-dasharray:none;stroke-dashoffset:2.4;display:inline" d="m 27,13 0,14 -14,0 0,10 14,0 0,14 10,0 0,-14 14,0 0,-10 -14,0 0,-14 -10,0 z" id="path3823" inkscape:connector-curvature="0" /></g><g style="display:none" inkscape:groupmode="layer" id="g3828" inkscape:label="Check"><path transform="matrix(2.2857143,0,0,2.3732058,-80.142858,-87.698568)" d="m 62.625,50.4375 a 13.5625,13.0625 0 1 1 -27.125,0 13.5625,13.0625 0 1 1 27.125,0 z" sodipodi:ry="13.0625" sodipodi:rx="13.5625" sodipodi:cy="50.4375" sodipodi:cx="49.0625" id="path3830" style="fill:#0080ff;fill-opacity:1;stroke:#000000;stroke-width:0.85871947;stroke-linecap:butt;stroke-linejoin:round;stroke-miterlimit:4;stroke-opacity:1;stroke-dasharray:none;stroke-dashoffset:2.4;display:inline" sodipodi:type="arc" /><path inkscape:connector-curvature="0" id="path3834" d="M 43.812498,13 29.999999,39.385645 17.8125,30.689691 13,36.824272 28.999998,48.2602 32.874998,51 34.999998,46.8903 51,16.395127 43.812498,13 z" style="fill:#ffffff;fill-opacity:1;stroke:#000000;stroke-width:2;stroke-linecap:butt;stroke-linejoin:round;stroke-miterlimit:4;stroke-opacity:1;stroke-dasharray:none;display:inline" /></g><g inkscape:groupmode="layer" id="layer5" inkscape:label="None" style="display:none"><path style="font-size:medium;font-style:normal;font-variant:normal;font-weight:normal;font-stretch:normal;text-indent:0;text-align:start;text-decoration:none;line-height:normal;letter-spacing:normal;word-spacing:normal;text-transform:none;direction:ltr;block-progression:tb;writing-mode:lr-tb;text-anchor:start;baseline-shift:baseline;color:#000000;fill:#ff0000;fill-opacity:1;stroke:#000000;stroke-width:2;stroke-linejoin:round;stroke-miterlimit:4;stroke-opacity:1;stroke-dasharray:none;marker:none;visibility:visible;display:inline;overflow:visible;enable-background:accumulate;font-family:Sans;-inkscape-font-specification:Sans" d="M 32,1 C 14.92507,1 1,14.925071 1,32 1,49.07493 14.925071,63 32,63 49.07493,63 63,49.07493 63,32 63,14.925072 49.07493,1 32,1 z m 0,7.75 c 4.917953,0 9.452005,1.534195 13.199219,4.117188 L 13.291016,45.713867 C 10.472047,41.86666 8.75,37.159073 8.75,32 8.75,19.113483 19.113482,8.75 32,8.75 z m 18.708984,9.536133 C 53.527953,22.13334 55.25,26.840928 55.25,32 55.25,44.88652 44.88652,55.25 32,55.25 c -4.917952,0 -9.452005,-1.534196 -13.199219,-4.117188 L 50.708984,18.286133 z" id="path3842" inkscape:connector-curvature="0" /></g><g inkscape:groupmode="layer" id="layer6" inkscape:label="Search"><path style="font-size:medium;font-style:normal;font-variant:normal;font-weight:normal;font-stretch:normal;text-indent:0;text-align:start;text-decoration:none;line-height:normal;letter-spacing:normal;word-spacing:normal;text-transform:none;direction:ltr;block-progression:tb;writing-mode:lr-tb;text-anchor:start;baseline-shift:baseline;color:#000000;fill:#ffffff;fill-opacity:1;stroke:#000000;stroke-width:2;stroke-linejoin:round;stroke-miterlimit:4;stroke-opacity:1;stroke-dasharray:none;marker:none;visibility:visible;display:inline;overflow:visible;enable-background:accumulate;font-family:Sans;-inkscape-font-specification:Sans" d="M 24.268912,1 C 11.450364,1 1,11.484936 1,24.25 1,37.015064 11.450364,47.5 24.268912,47.5 c 5.010382,0 9.63684,-1.616748 13.434846,-4.329102 L 57.492924,63 63,57.490234 43.180576,37.691406 C 45.89216,33.886973 47.507565,29.246705 47.507565,24.25 47.507565,11.484936 37.087461,1 24.268912,1 z m 0,7.75 c 8.572041,0 15.462176,6.864031 15.462176,15.5 0,8.635969 -6.890135,15.5 -15.462176,15.5 -8.572043,0 -15.462177,-6.864031 -15.462177,-15.5 0,-8.635969 6.890134,-15.5 15.462177,-15.5 z" id="path3852" inkscape:connector-curvature="0" /></g></svg>