<?xml version="1.0" encoding="UTF-8" standalone="no"?>
<!-- Generator: IcoMoon.io -->

<svg xmlns:dc="http://purl.org/dc/elements/1.1/" xmlns:cc="http://creativecommons.org/ns#" xmlns:rdf="http://www.w3.org/1999/02/22-rdf-syntax-ns#" xmlns:svg="http://www.w3.org/2000/svg" xmlns="http://www.w3.org/2000/svg" xmlns:sodipodi="http://sodipodi.sourceforge.net/DTD/sodipodi-0.dtd" xmlns:inkscape="http://www.inkscape.org/namespaces/inkscape" version="1.1" id="Layer_1" x="0px" y="0px" width="64" height="64" viewBox="0 0 64 64" enable-background="new 0 0 16 16" xml:space="preserve" inkscape:version="0.48.2 r9819" sodipodi:docname="spam.svg" style="fill:#000000" inkscape:export-filename="/Users/Tyler/Desktop/spam.png" inkscape:export-xdpi="180" inkscape:export-ydpi="180"><metadata id="metadata9"><rdf:RDF><cc:Work rdf:about=""><dc:format>image/svg+xml</dc:format><dc:type rdf:resource="http://purl.org/dc/dcmitype/StillImage" /><dc:title></dc:title></cc:Work></rdf:RDF></metadata><defs id="defs7" /><sodipodi:namedview pagecolor="#ffffff" bordercolor="#666666" borderopacity="1" objecttolerance="10" gridtolerance="10" guidetolerance="10" inkscape:pageopacity="0" inkscape:pageshadow="2" inkscape:window-width="1204" inkscape:window-height="750" id="namedview5" showgrid="false" inkscape:zoom="6.3819457" inkscape:cx="11.576627" inkscape:cy="32.530304" inkscape:window-x="0" inkscape:window-y="0" inkscape:window-maximized="0" inkscape:current-layer="g4348" showguides="true" inkscape:guide-bbox="true" /> <g id="g4348" transform="matrix(0.98437876,0,0,0.98437876,0.49987968,0.49987968)"><g id="g4881" transform="matrix(0.9841237,0,0,0.9841237,0.5080416,0.5080416)"><path inkscape:connector-curvature="0" style="fill:#ff0000;fill-opacity:1;stroke:#000000;stroke-width:2.06451511;stroke-miterlimit:4;stroke-opacity:1;stroke-dasharray:none" d="M 32,64 C 14.328,64 0,49.672 0,32 0,14.328 14.328,0 32,0 49.672,0 64,14.328 64,32 64,49.672 49.672,64 32,64 z" id="rect3787" /><path id="path4335" style="fill:#ffffff;fill-opacity:1;stroke:#000000;stroke-width:2.06451511;stroke-miterlimit:4;stroke-opacity:1;stroke-dasharray:none" d="m 32,46.4 c 2.654401,0 4.8,2.1504 4.8,4.8 0,2.654402 -2.145599,4.8 -4.8,4.8 -2.654402,0 -4.8,-2.145598 -4.8,-4.8 0,-2.6496 2.145598,-4.8 4.8,-4.8 z M 32,8 c -2.650966,0 -4.8,2.149033 -4.8,4.8 l 0,24 c 0,2.650965 2.149034,4.8 4.8,4.8 2.650968,0 4.8,-2.149035 4.8,-4.8 l 0,-24 C 36.8,10.149033 34.650968,8 32,8 z" inkscape:connector-curvature="0" /></g></g></svg>