<?xml version="1.0" encoding="UTF-8" standalone="no"?>
<!-- Generator: Adobe Illustrator 15.1.0, SVG Export Plug-In . SVG Version: 6.00 Build 0)  -->

<svg xmlns:dc="http://purl.org/dc/elements/1.1/" xmlns:cc="http://creativecommons.org/ns#" xmlns:rdf="http://www.w3.org/1999/02/22-rdf-syntax-ns#" xmlns:svg="http://www.w3.org/2000/svg" xmlns="http://www.w3.org/2000/svg" xmlns:sodipodi="http://sodipodi.sourceforge.net/DTD/sodipodi-0.dtd" xmlns:inkscape="http://www.inkscape.org/namespaces/inkscape" version="1.1" id="Layer_1" x="0px" y="0px" width="64" height="64" viewBox="0 0 64 64" enable-background="new 0 0 100 100" xml:space="preserve" inkscape:version="0.48.2 r9819" sodipodi:docname="Weather Icons Master.svg" inkscape:export-filename="/Users/Tyler/Desktop/Weather Icons/sleet.png" inkscape:export-xdpi="180" inkscape:export-ydpi="180" inkscape:label="Cloud-Sun"><metadata id="metadata9"><rdf:RDF><cc:Work rdf:about=""><dc:format>image/svg+xml</dc:format><dc:type rdf:resource="http://purl.org/dc/dcmitype/StillImage" /><dc:title /></cc:Work></rdf:RDF></metadata><defs id="defs7" /><sodipodi:namedview pagecolor="#ffffff" bordercolor="#666666" borderopacity="1" objecttolerance="10" gridtolerance="10" guidetolerance="10" inkscape:pageopacity="0" inkscape:pageshadow="2" inkscape:window-width="1280" inkscape:window-height="752" id="namedview5" showgrid="false" inkscape:zoom="8" inkscape:cx="13.705494" inkscape:cy="27.906806" inkscape:window-x="0" inkscape:window-y="0" inkscape:window-maximized="1" inkscape:current-layer="g5509" />

<g inkscape:groupmode="layer" id="layer8" inkscape:label="Fog" style="display:inline" transform="translate(0,-36)"><g id="g5509" transform="matrix(1.4092505,0,0,1.4092505,-38.462525,-2.462525)"><g id="g3781" transform="translate(-8.5e-6,0.135949)"><path style="fill:#ffffff;fill-opacity:1;fill-rule:evenodd;stroke:#000000;stroke-width:1.4191941;stroke-linejoin:round;stroke-miterlimit:4;stroke-opacity:1;stroke-dasharray:none" d="m 28.0025,46.001499 c 0,-8.985147 7.278479,-16.270897 16.255913,-16.270897 6.100794,0 11.41003,3.368286 14.190138,8.343424 0.674705,-0.11492 1.358555,-0.208484 2.065776,-0.208484 5.306187,0 9.807605,3.398796 11.48319,8.135957 z" id="path5502" inkscape:connector-curvature="0" sodipodi:nodetypes="cscscc" /><path inkscape:connector-curvature="0" id="path5491" style="fill:#c0c0c0;fill-opacity:1;fill-rule:evenodd;stroke:#000000;stroke-width:1.4191941;stroke-linejoin:round;stroke-miterlimit:4;stroke-opacity:1;stroke-dasharray:none" d="m 30.0025,65.9975 39.995,0 c 1.104,0 2,0.896 2,2 0,1.105 -0.896,2 -2,2 l -39.995,0 c -1.104,0 -2,-0.895 -2,-2 0,-1.104 0.895,-2 2,-2 z m 39.995,-11.998 -39.995,0 c -1.104,0 -2,-0.895 -2,-2 0,-1.104 0.896,-2 2,-2 l 39.995,0 c 1.104,0 2,0.896 2,2 0,1.105 -0.895,2 -2,2 z m 0,8 -39.995,0 c -1.104,0 -2,-0.896 -2,-2 0,-1.105 0.896,-2 2,-2 l 39.995,0 c 1.104,0 2,0.895 2,2 0,1.103 -0.895,2 -2,2 z" /></g></g></g><g inkscape:groupmode="layer" id="layer9" inkscape:label="Wind" style="display:none" transform="translate(0,-36)"><path id="path5552" style="fill:#ffffff;fill-opacity:1;fill-rule:evenodd;stroke:#000000;stroke-width:2;stroke-linejoin:round;stroke-miterlimit:4;stroke-opacity:1;stroke-dasharray:none" d="m 40.454287,65.161096 c -10.666728,0 -21.809369,0 -30.999997,0 -1.555848,0 -2.817157,1.271828 -2.817157,2.838902 0,1.567074 1.261309,2.837483 2.817157,2.837483 11.128983,0 21.165096,0 30.999997,0 4.670365,0 8.455699,3.814065 8.455699,8.516707 0,4.508177 -3.487976,8.159006 -7.886348,8.45851 -0.184617,0.03833 -0.373461,0.0582 -0.569351,0.0582 -1.555849,0 -2.818566,-1.271828 -2.818566,-2.838902 0,-1.568494 1.262717,-2.838902 2.818566,-2.838902 1.557258,0 2.818566,-1.271829 2.818566,-2.838903 0,-1.567074 -1.261308,-2.838902 -2.818566,-2.838902 -10.981945,0 -21.097341,0 -30.999997,0 C 4.785335,76.515289 1,72.702643 1,68.000001 c 0,-4.506758 3.487976,-8.157586 7.886349,-8.45851 10.693864,-0.113939 21.859565,-0.05678 31.567938,-0.05678 1.557258,0 2.818566,-1.271828 2.818566,-2.838902 0,-1.567074 -1.261308,-2.838903 -2.818566,-2.838903 -1.555849,0 -2.818566,-1.270408 -2.818566,-2.838902 0,-1.567074 1.262717,-2.838902 2.818566,-2.838902 0.19589,0 0.384734,0.02129 0.569351,0.0582 4.398372,0.299504 7.886348,3.950333 7.886348,8.45851 0,4.701222 -3.785334,8.515288 -8.455699,8.515288 z m 14.092832,5.676385 0,0 h -4.22785 c -1.557257,0 -2.818566,-1.270409 -2.818566,-2.837483 0,-1.567074 1.261309,-2.838902 2.818566,-2.838902 h 4.22785 c 1.555849,0 2.818566,-1.271829 2.818566,-2.837483 0,-1.568494 -1.262717,-2.838903 -2.818566,-2.838903 -1.557258,0 -2.818566,-1.271828 -2.818566,-2.838902 0,-1.567074 1.261308,-2.838903 2.818566,-2.838903 0.193072,0 0.381916,0.01987 0.566532,0.0582 C 59.512024,54.164609 63,57.815438 63,62.323615 c 0,4.701222 -3.783926,8.513868 -8.452881,8.513868 z" inkscape:connector-curvature="0" /></g><g inkscape:groupmode="layer" id="layer4" inkscape:label="Sun-Full" style="display:none" transform="translate(0,-36)"><path id="path4638" d="m 60.416341,70.582365 -5.164728,0 c -1.42747,0 -2.583657,-1.156186 -2.583657,-2.582364 0,-1.426178 1.156187,-2.583656 2.583657,-2.583656 l 5.164728,0 c 1.42747,0 2.583657,1.157478 2.583657,2.583656 0,1.426178 -1.154895,2.582364 -2.583657,2.582364 z M 50.269032,53.386842 c -1.008918,1.008917 -2.646956,1.008917 -3.65329,0 -1.008918,-1.008918 -1.008918,-2.644373 0,-3.65329 l 3.65329,-3.65329 c 1.006334,-1.008918 2.644372,-1.008918 3.65329,0 1.006334,1.008918 1.006334,2.644372 0,3.65329 z M 32.001291,83.499355 c -8.560945,0 -15.501938,-6.939701 -15.501938,-15.499354 0,-8.560945 6.939701,-15.500645 15.501938,-15.500645 8.560944,0 15.499353,6.9397 15.499353,15.500645 0,8.559653 -6.938409,15.499354 -15.499353,15.499354 z m 0,-36.16602 c -1.427471,0 -2.583657,-1.157478 -2.583657,-2.583656 l 0,-5.166021 c 0,-1.426178 1.156186,-2.583656 2.583657,-2.583656 1.426178,0 2.583656,1.157478 2.583656,2.583656 l 0,5.166021 c 0,1.426178 -1.15877,2.583656 -2.583656,2.583656 z m -18.267742,6.053507 -3.65329,-3.65329 c -1.008917,-1.008918 -1.008917,-2.644372 0,-3.65329 1.008918,-1.008918 2.644373,-1.008918 3.65329,0 l 3.65329,3.65329 c 1.008918,1.008917 1.008918,2.644372 0,3.65329 -1.008918,1.008917 -2.644372,1.008917 -3.65329,0 z m -2.400216,14.613159 c 0,1.426178 -1.157478,2.582364 -2.583656,2.582364 l -5.167313,0 C 2.156186,70.582365 1,69.426179 1,68.000001 1,66.573823 2.157478,65.416345 3.582364,65.416345 l 5.167313,0 c 1.42747,0 2.583656,1.157478 2.583656,2.583656 z m 2.400216,14.613159 c 1.008918,-1.007625 2.644372,-1.007625 3.65329,0 1.008918,1.008918 1.008918,2.645664 0,3.65329 l -3.65329,3.65329 c -1.008917,1.008918 -2.644372,1.008918 -3.65329,0 -1.008917,-1.007626 -1.008917,-2.644372 0,-3.65329 z m 18.267742,6.053507 c 1.426178,0 2.583656,1.156186 2.583656,2.582364 l 0,5.167313 C 34.584947,97.842522 33.427469,99 32.001291,99 30.57382,99 29.417634,97.842522 29.417634,96.416344 l 0,-5.167313 c 0,-1.426178 1.156186,-2.582364 2.583657,-2.582364 z m 18.267741,-6.053507 3.65329,3.65329 c 1.006334,1.008918 1.006334,2.645664 0,3.65329 -1.008918,1.008918 -2.646956,1.008918 -3.65329,0 l -3.65329,-3.65329 c -1.008918,-1.007626 -1.008918,-2.644372 0,-3.65329 1.006334,-1.008917 2.64308,-1.008917 3.65329,0 z" clip-rule="evenodd" inkscape:connector-curvature="0" style="fill:#ffff00;fill-opacity:1;fill-rule:evenodd;stroke:#000000;stroke-width:2;stroke-linejoin:round;stroke-miterlimit:4;stroke-opacity:1;stroke-dasharray:none" sodipodi:nodetypes="sssssssscscccssssssssssssssssssssssssssscccscscsssssssccccccc" /></g><g inkscape:groupmode="layer" id="layer3" inkscape:label="Moon-Full" style="display:none" transform="translate(0,-36)"><path id="path4581" d="M 32.000979,91.5 C 19.021482,91.5 8.500001,80.978518 8.500001,68.000979 8.500001,55.021482 19.021482,44.5 32.000979,44.5 c 1.478727,0 2.920241,0.15277 4.322581,0.415218 -0.258532,1.128141 -0.407384,2.297413 -0.407384,3.50194 0,8.652997 7.015628,15.666664 15.668627,15.666664 1.204525,0 2.373797,-0.148853 3.501938,-0.407382 0.26049,1.404299 0.413258,2.843854 0.413258,4.324539 C 55.499999,80.978518 44.978518,91.5 32.000979,91.5 z" clip-rule="evenodd" inkscape:connector-curvature="0" style="fill:#c0c0c0;fill-opacity:1;fill-rule:evenodd;stroke:#000000;stroke-width:1.99999988;stroke-linejoin:round;stroke-miterlimit:4;stroke-opacity:1;stroke-dasharray:none" sodipodi:nodetypes="ssscsscss" /></g><g inkscape:groupmode="layer" id="layer7" inkscape:label="Sleet" style="display:none" transform="translate(0,-36)"><g style="display:inline" id="g3831" transform="matrix(0.99997948,0,0,0.99997948,6.5648407e-4,0.00202862)"><path style="fill:#00c0ff;fill-opacity:1;fill-rule:evenodd;stroke:#000000;stroke-width:2.00004077;stroke-linejoin:round;stroke-miterlimit:4;stroke-opacity:1;stroke-dasharray:none;display:inline" d="m 43.509078,77.999947 6.150516,6.150517 c 3.394529,3.398008 3.394529,8.904765 0,12.301033 -3.398008,3.398008 -8.906505,3.398008 -12.301033,0 -3.398008,-3.396268 -3.398008,-8.903025 0,-12.301033 l 6.150517,-6.150517 z" id="path5368" inkscape:connector-curvature="0" /><path id="path5376" style="fill:#ffffff;fill-opacity:1;fill-rule:evenodd;stroke:#000000;stroke-width:2.00004077;stroke-linejoin:round;stroke-miterlimit:4;stroke-opacity:1;stroke-dasharray:none;display:inline" d="m 12.142381,83.341631 c 0.718981,-1.248963 2.307766,-1.674421 3.55201,-0.95532 l 2.855131,1.653539 0,-3.308381 c 0,-1.440813 1.164935,-2.610165 2.600301,-2.610165 1.435369,0 2.600303,1.169352 2.600303,2.610165 l 0,3.308381 2.853831,-1.654846 c 1.244243,-0.719099 2.834327,-0.293641 3.550711,0.955323 0.718983,1.248962 0.292533,2.845079 -0.95041,3.565483 l -2.855131,1.654844 2.855131,1.654844 c 1.242943,0.721709 1.669393,2.316519 0.95041,3.565483 -0.717684,1.246354 -2.306468,1.674421 -3.550711,0.952709 l -2.853831,-1.652234 0,3.308383 c 0,1.442116 -1.164934,2.610164 -2.600303,2.610164 -1.435366,0 -2.600301,-1.168048 -2.600301,-2.610164 l 0,-3.308383 -2.853831,1.654844 c -1.244244,0.721712 -2.834329,0.293645 -3.55201,-0.952709 -0.717684,-1.248964 -0.292535,-2.845078 0.951709,-3.565483 l 2.853831,-1.656151 -2.853831,-1.654842 c -1.244244,-0.721709 -1.669393,-2.316521 -0.953009,-3.565484 z" inkscape:connector-curvature="0" sodipodi:nodetypes="cccssscccscccccsssccccccc" /></g></g><g inkscape:groupmode="layer" id="layer6" inkscape:label="Snow" style="display:none" transform="translate(0,-36)"><path id="path5161" style="fill:#ffffff;fill-opacity:1;fill-rule:evenodd;stroke:#000000;stroke-width:2.00000048;stroke-linejoin:round;stroke-miterlimit:4;stroke-opacity:1;stroke-dasharray:none;display:inline" d="m 22.912317,83.250655 c 0.725428,-1.256219 2.328462,-1.684149 3.583864,-0.960871 l 2.880737,1.663146 0,-3.327603 c 0,-1.449183 1.175381,-2.625328 2.623619,-2.625328 1.448242,0 2.623623,1.176145 2.623623,2.625328 l 0,3.327603 2.879424,-1.664461 c 1.255402,-0.723277 2.859745,-0.295347 3.582555,0.960874 0.72543,1.256218 0.295157,2.86161 -0.958934,3.586198 L 37.24647,88.5 l 2.880735,1.664458 c 1.254091,0.7259 1.684364,2.329978 0.958934,3.586198 -0.72412,1.253595 -2.327153,1.68415 -3.582555,0.958244 l -2.879424,-1.661833 0,3.327605 C 34.62416,97.825166 33.448779,99 32.000537,99 30.552299,99 29.376918,97.825166 29.376918,96.374672 l 0,-3.327605 -2.879426,1.664459 c -1.255402,0.725904 -2.859747,0.295351 -3.583865,-0.958245 -0.72412,-1.25622 -0.295157,-2.861606 0.960246,-3.586197 l 2.879423,-1.665774 -2.879423,-1.664457 c -1.255403,-0.7259 -1.684366,-2.32998 -0.961556,-3.586198 z" inkscape:connector-curvature="0" sodipodi:nodetypes="cccssscccscccccsssccccccc" /></g><g inkscape:groupmode="layer" id="layer5" inkscape:label="Rain" style="display:none" transform="translate(0,-36)"><g id="g4925" transform="translate(2.8325369,-4.867)">
	<g id="g4927">
		
	</g>
</g><path style="fill:#00c0ff;fill-opacity:1;fill-rule:evenodd;stroke:#000000;stroke-width:2.00000024;stroke-linejoin:round;stroke-miterlimit:4;stroke-opacity:1;stroke-dasharray:none;display:inline" d="m 32.001312,77.999999 6.184215,6.1505 c 3.413128,3.398 3.413128,8.904742 0,12.301001 -3.416625,3.398 -8.955304,3.398 -12.368432,0 -3.416625,-3.396259 -3.416625,-8.903001 0,-12.301001 l 6.184217,-6.1505 z" id="path5009" inkscape:connector-curvature="0" /></g><g style="display:none" inkscape:label="Rain Cloud" id="g4958" inkscape:groupmode="layer" transform="translate(0,-36)"><path sodipodi:nodetypes="ssscssss" style="fill:#feffff;fill-opacity:1;fill-rule:evenodd;stroke:#000000;stroke-width:2;stroke-linejoin:round;stroke-miterlimit:4;stroke-opacity:1;stroke-dasharray:none" inkscape:connector-curvature="0" clip-rule="evenodd" d="M 25.044638,73.999998 C 14.802014,73.999998 6.4977809,65.717901 6.4977809,55.5 c 0,-10.217902 8.3042331,-18.5 18.5468571,-18.5 6.960579,0 13.018044,3.829979 16.189953,9.485905 0.769791,-0.130673 1.551174,-0.237062 2.356905,-0.237062 7.682837,0 13.910723,6.213308 13.910723,13.876734 0,7.661114 -6.227886,13.874421 -13.910723,13.874421 -3.217123,0 -14.839342,0 -18.546858,0 z" id="path4960" /></g><g style="display:none" inkscape:label="Moon-Cloud" id="g3936" inkscape:groupmode="layer" transform="translate(0,-36)"><g id="g3069" transform="translate(5.1369467,-5.3704445)"><path inkscape:connector-curvature="0" id="path4493" d="m 38.931646,50.955825 c -6.02352,0 -11.124544,3.885975 -13.00402,9.268058 4.049317,1.546429 7.425966,4.483771 9.519517,8.2263 0.763286,-0.129896 1.536055,-0.251459 2.334976,-0.251459 4.677471,0 8.785575,2.330284 11.27973,5.891324 2.261119,-2.456538 3.662966,-5.738437 3.664116,-9.339904 0,-0.867892 -0.09857,-1.726301 -0.251459,-2.550512 -0.662127,0.151738 -1.339486,0.251459 -2.047594,0.251459 -5.077459,0 -9.196213,-4.117604 -9.196213,-9.196213 0,-0.706958 0.06495,-1.386616 0.215536,-2.047594 -0.823061,-0.154036 -1.646697,-0.251459 -2.514589,-0.251459 z" style="fill:#c0c0c0;fill-opacity:1;fill-rule:evenodd;stroke:#000000;stroke-width:1.99999988;stroke-linejoin:round;stroke-miterlimit:4;stroke-opacity:1;stroke-dasharray:none;display:inline" /><path sodipodi:nodetypes="ssscssss" style="fill:#feffff;fill-opacity:1;fill-rule:evenodd;stroke:#000000;stroke-width:1.99999988;stroke-linejoin:round;stroke-miterlimit:4;stroke-opacity:1;stroke-dasharray:none;display:inline" inkscape:connector-curvature="0" clip-rule="evenodd" d="m 19.390268,95.785064 c -10.1560673,0 -18.3901264,-8.23291 -18.3901264,-18.390127 0,-10.157217 8.2340591,-18.390127 18.3901264,-18.390127 6.901758,0 12.908034,3.807233 16.053139,9.429567 0.763286,-0.129896 1.538067,-0.235653 2.336988,-0.235653 7.617912,0 13.793169,6.176407 13.793169,13.794319 0,7.615614 -6.175257,13.792021 -13.793169,13.792021 -3.189937,0 -14.713941,0 -18.390127,0 z" id="path3857" /></g></g><g inkscape:groupmode="layer" id="layer1" inkscape:label="Sun-Cloud" style="display:none" transform="translate(0,-36)"><path id="path3817" style="fill:#ffff00;fill-opacity:1;fill-rule:evenodd;stroke:#000000;stroke-width:1.99999988;stroke-linejoin:round;stroke-miterlimit:4;stroke-opacity:1;stroke-dasharray:none;display:inline" d="m 56.102699,65.504521 c -1.269077,0 -2.299053,1.029976 -2.299053,2.299053 0,1.270227 1.029976,2.299054 2.299053,2.299054 l 4.598107,0 c 1.269077,0 2.299053,-1.028827 2.299053,-2.299054 0,-1.267927 -1.029976,-2.299053 -2.299053,-2.299053 l -4.598107,0 z M 35.41122,54.009255 c -4.433724,0 -8.361369,2.102772 -10.88458,5.352483 4.649399,1.370749 8.526905,4.506899 10.848658,8.657373 0.763285,-0.129897 1.536055,-0.215537 2.334976,-0.215537 4.247861,0 8.031103,1.901442 10.561275,4.921411 0.588558,-1.533468 0.932841,-3.179878 0.933991,-4.921411 0,-7.615613 -6.176407,-13.794319 -13.79432,-13.794319 z m 17.889508,-6.394241 c -0.58827,0 -1.167632,0.233641 -1.616522,0.682531 l -3.268966,3.233043 c -0.89778,0.896631 -0.89778,2.372336 0,3.268967 0.89778,0.89778 2.371186,0.89778 3.268966,0 l 3.233044,-3.268967 c 0.89778,-0.89778 0.89778,-2.336412 0,-3.233043 -0.44889,-0.44889 -1.028252,-0.682531 -1.616522,-0.682531 z m -35.779015,0 c -0.588271,0 -1.168207,0.233641 -1.616522,0.682531 -0.89778,0.896631 -0.89778,2.335263 0,3.233043 l 3.268966,3.268967 c 0.89778,0.89778 2.336413,0.89778 3.233044,0 0.89778,-0.896631 0.89778,-2.372336 0,-3.268967 l -3.233044,-3.233043 c -0.448315,-0.44889 -1.064174,-0.682531 -1.652444,-0.682531 z M 35.41122,40.214936 c -1.267927,0 -2.299053,1.028826 -2.299053,2.299053 l 0,4.598107 c 0,1.269077 1.029976,2.299053 2.299053,2.299053 1.271377,0 2.299054,-1.028826 2.299054,-2.299053 l 0,-4.598107 c 0,-1.270227 -1.028827,-2.299053 -2.299054,-2.299053 z" inkscape:connector-curvature="0" /><path sodipodi:nodetypes="ssscssss" style="fill:#feffff;fill-opacity:1;fill-rule:evenodd;stroke:#000000;stroke-width:1.99999988;stroke-linejoin:round;stroke-miterlimit:4;stroke-opacity:1;stroke-dasharray:none;display:inline" inkscape:connector-curvature="0" clip-rule="evenodd" d="m 19.390268,95.785064 c -10.1560673,0 -18.3901264,-8.23291 -18.3901264,-18.390127 0,-10.157217 8.2340591,-18.390127 18.3901264,-18.390127 6.901758,0 12.908034,3.807233 16.053139,9.429567 0.763286,-0.129896 1.538067,-0.235653 2.336988,-0.235653 7.617912,0 13.793169,6.176407 13.793169,13.794319 0,7.615614 -6.175257,13.792021 -13.793169,13.792021 -3.189937,0 -14.713941,0 -18.390127,0 z" id="path3065" /></g><g inkscape:groupmode="layer" id="layer2" inkscape:label="Part Cloud" style="display:none" transform="translate(0,-36)" /><g transform="translate(0,-36)" style="display:none" inkscape:label="Cloud" id="g36" inkscape:groupmode="layer"><path sodipodi:nodetypes="ssscssss" style="fill:#feffff;fill-opacity:1;fill-rule:evenodd;stroke:#000000;stroke-width:2;stroke-linejoin:round;stroke-miterlimit:4;stroke-opacity:1;stroke-dasharray:none" inkscape:connector-curvature="0" clip-rule="evenodd" d="M 23.545199,90.604477 C 11.094465,90.604477 0.9999993,80.484883 0.9999993,68 c 0,-12.484882 10.0944657,-22.604476 22.5451997,-22.604476 8.461144,0 15.82448,4.679712 19.680191,11.590481 0.935743,-0.159663 1.885579,-0.289656 2.865008,-0.289656 9.339106,0 16.909603,7.591815 16.909603,16.955476 0,9.360836 -7.570497,16.952652 -16.909603,16.952652 -3.910672,0 -18.038415,0 -22.545199,0 z" id="path42" /></g></svg>